<?xml version="1.0" encoding="iso-8859-1"?>
<!-- Uploaded to: SVG Repo, www.svgrepo.com, Generator: SVG Repo Mixer Tools -->
<svg height="800px" width="800px" version="1.1" id="Layer_1" xmlns="http://www.w3.org/2000/svg"
	xmlns:xlink="http://www.w3.org/1999/xlink" viewBox="0 0 512.036 512.036" xml:space="preserve">
	<g transform="translate(1 1)">
		<polygon style="fill:#33A9F8;" points="7.982,502.054 205.596,502.054 205.596,376.3 7.982,376.3 	" />
		<polygon style="fill:#54C9FD;" points="7.982,502.054 178.649,502.054 178.649,376.3 7.982,376.3 	" />
		<g>
			<path style="fill:#1CD759;" d="M187.632,376.3h-35.93v-44.912c0-25.151-19.761-44.912-44.912-44.912s-44.912,19.761-44.912,44.912
			V376.3h-35.93v-44.912c0-44.912,35.93-80.842,80.842-80.842s80.842,35.93,80.842,80.842V376.3z" />
			<path style="fill:#1CD759;"
				d="M502.018,115.808h-89.825c-9.881,0-17.965-8.084-17.965-17.965V8.019L502.018,115.808z" />
		</g>
		<g>
			<path style="fill:#FD9808;" d="M106.789,286.475c-25.151,0-44.912,19.761-44.912,44.912V376.3h89.825v-44.912
			C151.702,306.236,131.94,286.475,106.789,286.475" />
			<path style="fill:#FD9808;" d="M412.193,115.808c-9.881,0-17.965-8.084-17.965-17.965V8.019H52.895
			c-9.881,0-17.965,8.084-17.965,17.965v268.575c13.474-26.049,40.421-44.014,71.86-44.014c44.912,0,80.842,35.93,80.842,80.842
			V376.3h17.965v62.877h26.947h251.509c9.881,0,17.965-8.084,17.965-17.965V115.808H412.193z" />
		</g>
		<g>
			<path style="fill:#FFDD09;" d="M106.789,286.475c-25.151,0-44.912,19.761-44.912,44.912V376.3h89.825v-44.912
			C151.702,306.236,131.94,286.475,106.789,286.475" />
			<path style="fill:#FFDD09;" d="M385.246,115.808c-9.881,0-17.965-8.084-17.965-17.965V8.019H52.895
			c-9.881,0-17.965,8.084-17.965,17.965v268.575c13.474-26.049,40.421-44.014,71.86-44.014c44.912,0,80.842,35.93,80.842,80.842
			V376.3h17.965v62.877h26.947h224.561c9.881,0,17.965-8.084,17.965-17.965V115.808H385.246z" />
		</g>
		<polygon style="fill:#15A143;"
			points="277.456,340.37 421.175,340.37 457.105,367.317 457.105,205.633 277.456,205.633 	" />
		<polygon style="fill:#1CD759;"
			points="277.456,340.37 394.228,340.37 430.158,349.352 430.158,205.633 277.456,205.633 	" />
		<path d="M502.018,124.791h-89.825c-15.27,0-26.947-11.677-26.947-26.947V8.019c0-3.593,1.797-7.186,5.389-8.084
		c3.593-1.796,7.186-0.898,9.881,1.796l107.789,107.789c2.695,2.695,3.593,6.288,1.797,9.881
		C509.203,122.994,505.611,124.791,502.018,124.791z M403.211,29.577v68.267c0,5.389,3.593,8.982,8.982,8.982h68.267L403.211,29.577
		z" />
		<path d="M232.544,106.826H124.754c-5.389,0-8.982-3.593-8.982-8.982c0-5.389,3.593-8.982,8.982-8.982h107.789
		c5.389,0,8.982,3.593,8.982,8.982C241.526,103.233,237.933,106.826,232.544,106.826z" />
		<path d="M88.825,106.826h-8.982c-5.389,0-8.982-3.593-8.982-8.982c0-5.389,3.593-8.982,8.982-8.982h8.982
		c5.389,0,8.982,3.593,8.982,8.982C97.807,103.233,94.214,106.826,88.825,106.826z" />
		<path d="M223.561,142.756h-35.93c-5.389,0-8.982-3.593-8.982-8.982c0-5.389,3.593-8.982,8.982-8.982h35.93
		c5.389,0,8.982,3.593,8.982,8.982C232.544,139.163,228.951,142.756,223.561,142.756z" />
		<path d="M223.561,178.686h-17.965c-5.389,0-8.982-3.593-8.982-8.982c0-5.389,3.593-8.982,8.982-8.982h17.965
		c5.389,0,8.982,3.593,8.982,8.982C232.544,175.093,228.951,178.686,223.561,178.686z" />
		<path d="M151.702,142.756h-71.86c-5.389,0-8.982-3.593-8.982-8.982c0-5.389,3.593-8.982,8.982-8.982h71.86
		c5.389,0,8.982,3.593,8.982,8.982C160.684,139.163,157.091,142.756,151.702,142.756z" />
		<path d="M169.667,178.686H79.842c-5.389,0-8.982-3.593-8.982-8.982c0-5.389,3.593-8.982,8.982-8.982h89.825
		c5.389,0,8.982,3.593,8.982,8.982C178.649,175.093,175.056,178.686,169.667,178.686z" />
		<path d="M223.561,70.896h-17.965c-5.389,0-8.982-3.593-8.982-8.982s3.593-8.982,8.982-8.982h17.965
		c5.389,0,8.982,3.593,8.982,8.982S228.951,70.896,223.561,70.896z" />
		<path d="M169.667,70.896H79.842c-5.389,0-8.982-3.593-8.982-8.982s3.593-8.982,8.982-8.982h89.825c5.389,0,8.982,3.593,8.982,8.982
		S175.056,70.896,169.667,70.896z" />
		<path d="M232.544,214.615H124.754c-5.389,0-8.982-3.593-8.982-8.982c0-5.389,3.593-8.982,8.982-8.982h107.789
		c5.389,0,8.982,3.593,8.982,8.982C241.526,211.022,237.933,214.615,232.544,214.615z" />
		<path d="M88.825,214.615h-8.982c-5.389,0-8.982-3.593-8.982-8.982c0-5.389,3.593-8.982,8.982-8.982h8.982
		c5.389,0,8.982,3.593,8.982,8.982C97.807,211.022,94.214,214.615,88.825,214.615z" />
		<path d="M412.193,259.528h-44.912c-5.389,0-8.982-3.593-8.982-8.982c0-5.389,3.593-8.982,8.982-8.982h44.912
		c5.389,0,8.982,3.593,8.982,8.982C421.175,255.935,417.582,259.528,412.193,259.528z" />
		<path d="M331.351,259.528h-8.982c-5.389,0-8.982-3.593-8.982-8.982c0-5.389,3.593-8.982,8.982-8.982h8.982
		c5.389,0,8.982,3.593,8.982,8.982C340.333,255.935,336.74,259.528,331.351,259.528z" />
		<path d="M358.298,304.44h-35.93c-5.389,0-8.982-3.593-8.982-8.982s3.593-8.982,8.982-8.982h35.93c5.389,0,8.982,3.593,8.982,8.982
		S363.688,304.44,358.298,304.44z" />
		<path d="M412.193,304.44h-17.965c-5.389,0-8.982-3.593-8.982-8.982s3.593-8.982,8.982-8.982h17.965
		c5.389,0,8.982,3.593,8.982,8.982S417.582,304.44,412.193,304.44z" />
		<path d="M457.105,376.3c-1.796,0-3.593-0.898-5.389-1.797l-33.235-25.151H277.456c-5.389,0-8.982-3.593-8.982-8.982V205.633
		c0-5.389,3.593-8.982,8.982-8.982h179.649c5.389,0,8.982,3.593,8.982,8.982v161.684c0,3.593-1.796,6.288-5.389,8.084
		C459.8,376.3,458.902,376.3,457.105,376.3z M286.439,331.387h134.737c1.797,0,3.593,0.898,5.389,1.797l21.558,16.168V214.615
		H286.439V331.387z" />
		<path d="M124.754,439.177h-35.93c-5.389,0-8.982-3.593-8.982-8.982s3.593-8.982,8.982-8.982h35.93c5.389,0,8.982,3.593,8.982,8.982
		S130.144,439.177,124.754,439.177z" />
		<path d="M106.789,466.124c-5.389,0-8.982-3.593-8.982-8.982v-26.947c0-5.389,3.593-8.982,8.982-8.982s8.982,3.593,8.982,8.982
		v26.947C115.772,462.531,112.179,466.124,106.789,466.124z" />
		<path d="M205.596,511.036H7.982c-5.389,0-8.982-3.593-8.982-8.982V376.3c0-5.389,3.593-8.982,8.982-8.982h197.614
		c5.389,0,8.982,3.593,8.982,8.982v125.754C214.579,507.443,210.986,511.036,205.596,511.036z M16.965,493.072h179.649V385.282
		H16.965V493.072z" />
		<path d="M187.632,385.282h-35.93c-5.389,0-8.982-3.593-8.982-8.982v-44.912c0-19.761-16.168-35.93-35.93-35.93
		s-35.93,16.168-35.93,35.93V376.3c0,5.389-3.593,8.982-8.982,8.982h-35.93c-5.389,0-8.982-3.593-8.982-8.982v-44.912
		c0-49.404,40.421-89.825,89.825-89.825s89.825,40.421,89.825,89.825V376.3C196.614,381.689,193.021,385.282,187.632,385.282z
		 M160.684,367.317h17.965v-35.93c0-39.523-32.337-71.86-71.86-71.86s-71.86,32.337-71.86,71.86v35.93h17.965v-35.93
		c0-29.642,24.253-53.895,53.895-53.895s53.895,24.253,53.895,53.895V367.317z" />
		<path d="M151.702,385.282H61.877c-5.389,0-8.982-3.593-8.982-8.982v-44.912c0-29.642,24.253-53.895,53.895-53.895
		s53.895,24.253,53.895,53.895V376.3C160.684,381.689,157.091,385.282,151.702,385.282z M70.86,367.317h71.86v-35.93
		c0-19.761-16.168-35.93-35.93-35.93s-35.93,16.168-35.93,35.93V367.317z" />
		<path d="M484.053,448.159H205.596c-5.389,0-8.982-3.593-8.982-8.982v-53.895h-8.982c-5.389,0-8.982-3.593-8.982-8.982v-44.912
		c0-39.523-32.337-71.86-71.86-71.86c-26.947,0-51.2,15.27-63.775,39.523c-1.796,3.593-6.288,5.389-9.881,4.491
		s-7.186-4.491-7.186-8.982V25.984c0-15.27,11.677-26.947,26.947-26.947h341.333c5.389,0,8.982,3.593,8.982,8.982v89.825
		c0,5.389,3.593,8.982,8.982,8.982h89.825c5.389,0,8.982,3.593,8.982,8.982v305.404C511,436.482,499.323,448.159,484.053,448.159z
		 M214.579,430.194h269.474c5.389,0,8.982-3.593,8.982-8.982V124.791h-80.842c-15.27,0-26.947-11.677-26.947-26.947V17.001H52.895
		c-5.389,0-8.982,3.593-8.982,8.982v241.628c16.168-16.168,38.625-26.049,62.877-26.049c49.404,0,89.825,40.421,89.825,89.825v35.93
		h8.982c5.389,0,8.982,3.593,8.982,8.982V430.194z" />
	</g>
</svg>